<svg xmlns="http://www.w3.org/2000/svg" width="567.123" height="567.124"><path d="M0 567.123h567.123V0H0v567.123zm423.24-158.019c0 9.352-3.248 17.265-9.748 23.765-6.5 6.499-14.32 9.749-23.459 9.749h-22.846v69.156c0 8.732-3.047 16.15-9.137 22.239-6.09 6.09-13.508 9.138-22.24 9.138s-16.145-3.048-22.24-9.138c-6.09-6.095-9.137-13.507-9.137-22.239v-69.156h-42.044v69.156c0 8.732-3.048 16.15-9.137 22.239-6.096 6.096-13.507 9.138-22.24 9.138-8.531 0-15.845-3.048-21.934-9.138-6.089-6.089-9.137-13.507-9.137-22.239l-.306-69.156h-22.546c-9.345 0-17.265-3.25-23.764-9.749-6.5-6.5-9.75-14.413-9.75-23.765V206.202h279.673v202.902h-.008zm12.186-177.614c0-8.721 3.049-16.089 9.137-22.087 6.096-5.985 13.404-8.984 21.936-8.984 8.727 0 16.145 2.999 22.238 8.984 6.096 5.998 9.139 13.366 9.139 22.087v131.005c0 8.745-3.049 16.15-9.139 22.24-6.094 6.095-13.506 9.137-22.238 9.137-8.531 0-15.846-3.048-21.936-9.137-6.096-6.096-9.137-13.495-9.137-22.24V231.49zM161.85 129.592c12.993-20.006 30.465-35.582 52.399-46.769L192.621 42.92c-1.426-2.644-.912-4.664 1.524-6.096 2.638-1.224 4.669-.606 6.095 1.824l21.934 40.221c19.291-8.531 39.707-12.803 61.237-12.803 21.524 0 41.935 4.272 61.237 12.803l21.934-40.221c1.42-2.43 3.451-3.048 6.096-1.824 2.436 1.426 2.943 3.452 1.523 6.096l-21.627 39.902c21.73 11.188 39.094 26.763 52.092 46.769 12.994 20.019 19.5 41.891 19.5 65.655H142.352c0-23.769 6.499-45.642 19.498-65.654zM68.93 231.49c0-8.531 3.048-15.839 9.137-21.934 6.096-6.096 13.507-9.137 22.24-9.137 8.531 0 15.845 3.048 21.934 9.137s9.137 13.403 9.137 21.934v131.005c0 8.745-2.999 16.15-8.991 22.24-5.991 6.095-13.354 9.137-22.087 9.137s-16.145-3.048-22.24-9.137c-6.095-6.096-9.137-13.495-9.137-22.24V231.49h.007z"/><path d="M219.127 120.602c-3.25 0-5.992 1.169-8.226 3.5-2.24 2.344-3.354 5.128-3.354 8.378 0 3.262 1.114 6.046 3.354 8.378 2.234 2.344 4.976 3.513 8.226 3.513 3.243 0 6.04-1.169 8.378-3.513 2.332-2.332 3.501-5.117 3.501-8.378 0-3.25-1.169-6.035-3.501-8.378-2.338-2.331-5.135-3.5-8.378-3.5zM347.689 120.602c-3.25 0-6.047 1.169-8.379 3.5-2.338 2.344-3.5 5.128-3.5 8.378 0 3.262 1.17 6.046 3.5 8.378 2.332 2.344 5.129 3.513 8.379 3.513 3.244 0 5.986-1.169 8.225-3.513 2.234-2.332 3.355-5.117 3.355-8.378 0-3.25-1.121-6.035-3.355-8.378-2.238-2.331-4.98-3.5-8.225-3.5z"/></svg>