<?xml version="1.0" encoding="utf-8"?>
<!-- Svg Vector Icons : http://www.onlinewebfonts.com/icon -->
<!DOCTYPE svg PUBLIC "-//W3C//DTD SVG 1.1//EN" "http://www.w3.org/Graphics/SVG/1.1/DTD/svg11.dtd">
<svg version="1.1" xmlns="http://www.w3.org/2000/svg" xmlns:xlink="http://www.w3.org/1999/xlink" x="0px" y="0px" viewBox="0 0 1000 1000" enable-background="new 0 0 1000 1000" xml:space="preserve">
<metadata> Svg Vector Icons : http://www.onlinewebfonts.com/icon </metadata>
<g><g><g><path d="M363.4,489.7c-0.3-14-0.6-27.1-0.9-40.1c-1.2-0.3-2.4-0.6-3.6-0.9c-3.3,8.5-7.3,16.8-9.8,25.6C345.2,488.8,345.6,488.9,363.4,489.7z"/><path d="M478.9,487.4c1-12.8,0.5-25.7,0.7-38.6c-1.1-0.3-2.3-0.5-3.4-0.8c-5.8,16.5-11.7,32.9-17.6,49.6C476.6,503,477.7,502.7,478.9,487.4z"/><path d="M937.9,10H62.1C33.3,10,10,33.3,10,62.1v875.7c0,28.8,23.3,52.1,52.1,52.1h875.7c28.8,0,52.1-23.3,52.1-52.1V62.1C990,33.3,966.7,10,937.9,10z M275.5,591c-6.9,2-9.1-0.6-11-7.1c-11.2-37-22.9-73.9-34.9-112.3c-0.7,5-1.5,9.1-1.7,13.2c-1.2,22.4-2.1,44.9-3.4,67.3c-0.3,5.3-0.9,11-3.1,15.6c-1.6,3.4-5.9,6.4-9.7,7.5c-5.4,1.6-11.5,0.5-16.9,2.1c-13.8,4.1-21.2-2.9-27.5-13.7c-7.7-13.2-15.9-26.1-24-39.1c-0.5,0-1.1,0.1-1.6,0.1c1.5,11.9,2.9,23.9,4.8,35.8c1.1,6.9-1.7,10.9-7.7,13.5c-1.3,0.5-2.5,1.3-3.9,1.8c-26.6,10.2-31.7,6.6-36-21.2c-6.1-40.1-4.6-80.3-3.2-120.5c0.1-2.3,2.7-5.6,4.9-6.6c4.5-2,9.5-3.2,14.4-4c19.7-3.3,24.8-0.7,34,16.8c9.1,17.4,18.1,34.8,27.2,52.2c1.2,2.3,2.7,4.6,4.5,7.6c4.1-19.3,6.9-37.5,11.9-55.1c4.7-16.7,11.5-32.8,18.2-48.9c1.2-2.9,6.5-5.7,9.9-5.8c9.6-0.1,19.8-0.4,28.5,2.8c5.4,1.9,10.5,9.4,12.2,15.4c6,20.8,10.8,42.1,15.7,63.2c8.5,37,16.8,74.1,25.4,112.2C294.7,586,285,588.2,275.5,591z M326.5,577.2c-18.2-11.6-25.5-26.5-25.2-46.9c0.4-24.1-0.3-48.1,6.3-71.7c5.4-19,18.5-31,32.4-43.6c13.9-12.5,27.5-7.8,42.6-5.2c16.8,2.9,19.9,14,20.6,27.3c1.3,23.4,5.9,46.6,0.3,70.1c-1.4,5.9-3.2,9-9.4,8.6c-16.2-0.9-32.5-1.7-49.9-2.6c-2.1,15.7-2.8,31.3,6.3,45.3c8.8,13.6,20.5,16.4,36,9.3c13.5-6.1,27.9-2.9,38.9,8.6C400.1,594.4,351.7,593.2,326.5,577.2z M485,585.1c-7.6-1.7-15.7-1.6-23.2-3.5c-27.6-7-44-31-44.9-59.7c-0.9-27.7,5.8-53.8,17.1-77.8c8-17.1,23-31.2,35.8-45.7c2.3-2.7,9.7-2.6,14.1-1.4c9.5,2.6,18.9,6.1,27.7,10.5c3.3,1.7,6.7,7.2,6.6,10.9c-0.8,15.2-3,30.2-4.5,45.4c-1.7,18-3.2,36-4.8,55c-16.4,10.4-34.4,4-52.6,1.5c-5.8,17.7,2.5,30.2,12.8,42c8.5,9.8,19.4,10.2,30.4,6.3c6.6-2.3,12.2-7.4,18.6-10.4c2.8-1.4,6.7-1.7,9.7-0.9c7.2,1.8,11.6,6.5,11.7,15.3C522.4,581.2,505.4,589.5,485,585.1z M645.2,505c-12.5,1.7-25,3.6-37.5,5.2c-4.4,0.6-8.1,0.2-7.6,7.1c0.8,12,0.2,24.1,0.5,36.2c0.3,12.1,1,24.1,1.5,37.3c-9.3,1.5-18.2,3-28.4,4.7c-0.8-14-1.4-27.4-2.3-40.7c-1-13.4-2.1-26.8-3.3-41.4c-9.1-0.5-17.6-1.2-26-1.4c-7.9-0.2-13.5-2.6-12.8-11.7c0.6-9,6.4-11.9,14.7-11.4c6.9,0.4,13.9,0.7,21.7,1c-2.9-28-6.2-54.5-8.3-81c-1.5-19.2-2.2-38.4-1.7-57.6c0.5-20.4,9.2-25.1,27.7-16.8c19,8.5,18,9.5,17.6,29.9c-0.7,31.3,1.2,62.6,1.6,93.8c0.1,6.9-2,13.7-2.4,20.6c-0.2,2.6,1.8,5.4,2.9,8.1c1.5-2.2,4-4.2,4.2-6.5c0.6-6.6,4.9-9.1,9.2-5.8c10.6,8.2,20.3,17.6,30.3,26.6C646.3,502.5,645.8,503.8,645.2,505z M726.9,572.8c-3.9,4.1-8.8,8.6-14,9.8c-9.2,2.2-19.1,2.8-28.6,2.6c-11.1-0.3-18.2-8.1-20.3-17.8c-5.6-25.2-9.8-50.8-14.1-76.3c-1.2-7.3-1-14.9-0.7-22.4c0.3-10.6,5.3-13.9,15.4-10.6c3,1,5.9,2.6,8.8,3.8c19.6,8.7,19.2,9.3,19.4,30.2c0.2,21.4,2.2,42.7,3.5,64c0.2,2.4,1.4,4.6,2.5,8.2c22.9-19.6,29.5-44,29.4-71c0-6.3-2.3-12.7-1.9-18.9c0.3-4.5,2.3-9.7,5.3-12.9c1.8-1.9,7.2-1.5,10.6-0.6c5.1,1.4,9.8,4.2,14.6,6.3c11.4,4.9,13.9,13.2,13.4,25.3c-0.9,24.6-13.2,43-28.3,60.6C736.8,559.5,732.5,566.8,726.9,572.8z M876,535.8c-13.8,11.6-27.6,23.4-42.1,34.1c-5.5,4-13.1,5.1-19.9,7.6c-4.5,19.4-1.9,47.4,8.8,91.1c-11.1,0.3-22,1.1-32.8,0.6c-1.9-0.1-4.6-5.1-5-8.1c-4-26.3-7.5-52.7-11.6-79c-0.7-4.4-2.8-9.3-6-12.3c-9.3-8.8-8.5-15.4,2.8-21.4c2.1-1.1,3.6-4.8,4.1-7.5c4.8-23.7,8-47.7,14.1-71c6.8-25.6,21.6-46.6,45.8-58.7c6.5-3.2,15.7-2.6,23.3-1.5c7.2,1.1,13.7,6,20.9,7.7c19.5,4.5,24.2,20.1,26,36.1C908,485.3,901.6,514.2,876,535.8z"/><path d="M815.1,540.2c39.6-20.5,58.7-63.6,43.7-102.1C827.5,465.2,822.9,502.8,815.1,540.2z"/></g></g><g></g><g></g><g></g><g></g><g></g><g></g><g></g><g></g><g></g><g></g><g></g><g></g><g></g><g></g><g></g></g>
</svg>